# xmcd CD database file
# Copyright (C) 1996 Ti Kan
#
# Track frame offsets:
#  150
#  12600
#  26030
#  41507
#  58792
#  71797
#  88717
#  105120
#  118147
#  132725
#  145707
#  165220
#
# Disc length: 2402 seconds
#
# Revision: 2
# Processed by: cddbd v1.4PL0 Copyright (c) Steve Scherf et al.
# Submitted via: Gronk 1.4
#
DISCID=a409600c
DTITLE=Johnny Shines - Johnny Shines
DYEAR=1900
DGENRE=blues
TTITLE0=Give My Heart A Break
TTITLE1=Too Lazy
TTITLE2=Moaning and Groaning
TTITLE3=Just A Little Tenderness
TTITLE4=I Know The Winds Are Blowing
TTITLE5=Just Call Me
TTITLE6=My Love Can't Hide
TTITLE7=Skull and Crossbones Blues
TTITLE8=Vallie Lee
TTITLE9=Can't Get Along With You
TTITLE10=Have To Pay The Cost
TTITLE11=Ramblin'
EXTD=HCD 8028\n\nJohnny Shines:  vocal and guitar\nPhillip Walker:  guita
EXTD=r\nDavid II:  baritone sax\nNat Dove:  piano\nCharles Jones:  bass\n
EXTD=Murl Downy:  drums\n\nProduced by Bruce Bromberg, Frank Scott and John
EXTD=Harmer\nRecorded at Vault Recording Studio, Los Angeles, CA  Record
EXTD=ed by Ed Fournier, November 13, 1970 - "Ramblin'" recorded at KPFK Ra
EXTD=dio, June 1974.\n\nSubmitted 7/1/97\n[Jmccoy@efn.org]
EXTT0=
EXTT1=
EXTT2=
EXTT3=
EXTT4=
EXTT5=
EXTT6=
EXTT7=
EXTT8=
EXTT9=
EXTT10=
EXTT11=
PLAYORDER=
